<svg width="64" height="64" viewBox="0 0 36 36" xmlns="http://www.w3.org/2000/svg" role="img" aria-label="The Standoff — Z">
  <!-- brutalist red offset shadow -->
  <rect x="4.5" y="6" width="30" height="30" rx="6" fill="#ff3b2f"/>
  <!-- yellow tile with ink border -->
  <rect x="3" y="3" width="30" height="30" rx="6" fill="#ffce2b" stroke="#1a1714" stroke-width="3"/>
  <!-- the Z glyph (from the provided icon), inked to match the brand -->
  <path fill="#1a1714" d="M24.281 24.907c1.301 0 2.232.713 2.232 2.046c0 1.179-1.117 2.047-2.232 2.047H12.095c-1.643 0-2.604-.93-2.604-2.232c0-.62.217-1.24.62-1.799l9.984-13.952H11.94c-1.24 0-2.17-.713-2.17-1.984c0-1.178.992-2.108 2.17-2.108h11.349c1.797 0 2.603 1.147 2.603 2.232c0 .682-.279 1.457-.682 1.984l-9.922 13.767h8.993z"></path>
</svg>
